# Made in Blockbench 4.12.2
mtllib materials.mtl

o cylinder
v 0 0 -0.0625
v 0 2.7755575615628914e-17 0.0625
v 0.18121843353822908 -0.43749999999999994 -0.06249999999999992
v 0.18121843353822908 -0.4374999999999999 0.06250000000000006
v 0.4375 -0.18121843353822914 -0.06249999999999997
v 0.4375 -0.18121843353822914 0.06250000000000006
v 0.4375 0.18121843353822908 -0.06250000000000001
v 0.4375 0.18121843353822908 0.06249999999999997
v 0.18121843353822914 0.43749999999999994 -0.06250000000000008
v 0.18121843353822914 0.4375 0.06249999999999992
v -0.18121843353822906 0.43750000000000006 -0.06250000000000008
v -0.18121843353822906 0.4375 0.06249999999999989
v -0.4375 0.18121843353822936 -0.06250000000000001
v -0.4375 0.1812184335382294 0.0625
v -0.4375 -0.1812184335382292 -0.06249999999999996
v -0.4375 -0.18121843353822914 0.06250000000000003
v -0.18121843353822936 -0.43749999999999994 -0.06249999999999992
v -0.18121843353822936 -0.4374999999999999 0.06250000000000006
vt 0.375 0.409390625
vt 0.503140625 0.28125
vt 0.59375 0.5
vt 0.5 0.34375
vt 0.5 0.53125
vt 0.4375 0.53125
vt 0.4375 0.34375
vt 0.5433366101147565 0.2961637087704643
vt 0.6633363872731934 0.41413069581923323
vt 0.4609375 0.5
vt 0.375 0.590609375
vt 0.375 0.409390625
vt 0.59375 0.5
vt 0.3125 0.4375
vt 0.3125 0.625
vt 0.25 0.625
vt 0.25 0.4375
vt 0.6633363872731934 0.41413069581923323
vt 0.6647737912295357 0.5823991101147565
vt 0.4609375 0.5
vt 0.503140625 0.71875
vt 0.375 0.590609375
vt 0.59375 0.5
vt 0.5234375 0.2109375
vt 0.5234375 0.3984375
vt 0.4609375 0.3984375
vt 0.4609375 0.2109375
vt 0.6647737912295357 0.5823991101147565
vt 0.5468068041807668 0.7023988872731934
vt 0.4609375 0.5
vt 0.653109375 0.625
vt 0.471890625 0.625
vt 0.5625 0.40625
vt 0.4609375 0.4296875
vt 0.4609375 0.6171875
vt 0.3984375 0.6171875
vt 0.3984375 0.4296875
vt 0.5780568041807668 0.7961488872731934
vt 0.40978838988524346 0.796875
vt 0.4921875 0.59375
vt 0.78125 0.496859375
vt 0.653109375 0.625
vt 0.5625 0.40625
vt 0.21875 0.40625
vt 0.21875 0.21875
vt 0.28125 0.21875
vt 0.28125 0.40625
vt 0.40978838988524346 0.796875
vt 0.28978861272680656 0.6796193041807668
vt 0.4921875 0.59375
vt 0.78125 0.315640625
vt 0.78125 0.496859375
vt 0.5625 0.40625
vt 0.375 0.625
vt 0.375 0.4375
vt 0.4375 0.4375
vt 0.4375 0.625
vt 0.28978861272680656 0.6796193041807668
vt 0.2890625 0.5113508898852435
vt 0.4921875 0.59375
vt 0.653109375 0.1875
vt 0.78125 0.315640625
vt 0.5625 0.40625
vt 0.3125 0.34375
vt 0.3125 0.15625
vt 0.375 0.15625
vt 0.375 0.34375
vt 0.2890625 0.5113508898852435
vt 0.4063181958192333 0.39135111272680656
vt 0.4921875 0.59375
vt 0.471890625 0.1875
vt 0.653109375 0.1875
vt 0.5625 0.40625
vt 0.3984375 0.515625
vt 0.5859375 0.515625
vt 0.5859375 0.578125
vt 0.3984375 0.578125
vt 0.4063181958192333 0.39135111272680656
vt 0.5745866101147565 0.3899137087704643
vt 0.4921875 0.59375
vn -1.8581531159043986e-17 -1.9802066929433255e-16 -1
vn 0.7071067811865474 -0.7071067811865477 0
vn -8.971956906764427e-17 8.971956906764433e-17 1
vn 1.5860328923216515e-17 -1.1487066357038277e-16 -1
vn 1 0 0
vn -3.1720657846433024e-17 2.2974132714076553e-16 1
vn 5.687175234917154e-17 -2.1388099821754912e-16 -1
vn 0.7071067811865476 0.7071067811865476 -3.0632176952102086e-16
vn -1.8581531159043937e-17 1.9802066929433253e-16 1
vn -5.830036825134134e-32 -1.9032394707859828e-16 -1
vn 3.063217695210207e-16 1 4.440892098500627e-16
vn -7.658044238025519e-17 2.2204460492503136e-16 1
vn -5.68717523491717e-17 -2.138809982175491e-16 -1
vn -0.7071067811865472 0.7071067811865478 0
vn 1.2688263138573246e-16 3.063217695210209e-16 1
vn -3.1720657846433067e-17 -1.531608847605102e-16 -1
vn -1 0 0
vn 3.172065784643306e-17 7.658044238025512e-17 1
vn -1.9708690031083584e-17 -1.8216034037111604e-16 -1
vn -0.7071067811865477 -0.7071067811865475 3.0632176952102115e-16
vn 1.3139126687389065e-17 1.2144022691407735e-16 1
vn 0 -1.903239470785983e-16 -1
vn 0 -1 4.440892098500627e-16
vn 0 1.2688263138573222e-16 1
usemtl m_27634035-53c9-78d8-8ffc-a902c2b900b6
f 5/1/1 3/2/1 1/3/1
f 3/4/2 5/5/2 6/6/2 4/7/2
f 4/8/3 6/9/3 2/10/3
f 7/11/4 5/12/4 1/13/4
f 5/14/5 7/15/5 8/16/5 6/17/5
f 6/18/6 8/19/6 2/20/6
f 9/21/7 7/22/7 1/23/7
f 7/24/8 9/25/8 10/26/8 8/27/8
f 8/28/9 10/29/9 2/30/9
f 11/31/10 9/32/10 1/33/10
f 9/34/11 11/35/11 12/36/11 10/37/11
f 10/38/12 12/39/12 2/40/12
f 13/41/13 11/42/13 1/43/13
f 11/44/14 13/45/14 14/46/14 12/47/14
f 12/48/15 14/49/15 2/50/15
f 15/51/16 13/52/16 1/53/16
f 13/54/17 15/55/17 16/56/17 14/57/17
f 14/58/18 16/59/18 2/60/18
f 17/61/19 15/62/19 1/63/19
f 15/64/20 17/65/20 18/66/20 16/67/20
f 16/68/21 18/69/21 2/70/21
f 3/71/22 17/72/22 1/73/22
f 17/74/23 3/75/23 4/76/23 18/77/23
f 18/78/24 4/79/24 2/80/24
o cylinder
v -2.5232341468753578e-18 0 -0.06281249999999994
v -2.5232341468753578e-18 2.7755575615628914e-17 0.06281249999999994
v 0.12944173824159225 -0.3125 -0.06281249999999988
v 0.12944173824159225 -0.31249999999999994 0.0628125
v 0.3125 -0.12944173824159222 -0.06281249999999991
v 0.3125 -0.12944173824159222 0.06281249999999994
v 0.3125 0.1294417382415922 -0.06281249999999994
v 0.3125 0.12944173824159222 0.06281249999999991
v 0.12944173824159225 0.3125 -0.0628125
v 0.12944173824159225 0.3125 0.06281249999999988
v -0.1294417382415922 0.3125 -0.0628125
v -0.1294417382415922 0.3125 0.06281249999999988
v -0.3124999999999999 0.12944173824159239 -0.06281249999999994
v -0.3124999999999999 0.12944173824159239 0.06281249999999991
v -0.3125 -0.1294417382415923 -0.06281249999999991
v -0.3125 -0.12944173824159227 0.06281249999999994
v -0.1294417382415924 -0.3124999999999999 -0.06281249999999991
v -0.1294417382415924 -0.3124999999999999 0.0628125
vt 0.15625 0.591528125
vt 0.24777812500000002 0.5
vt 0.3125 0.65625
vt 0.65625 0.59375
vt 0.65625 0.71875
vt 0.59375 0.71875
vt 0.59375 0.59375
vt 0.658471875 0.1875
vt 0.75 0.27902812499999996
vt 0.59375 0.34375
vt 0.15625 0.720971875
vt 0.15625 0.591528125
vt 0.3125 0.65625
vt 0.21875 0.34375
vt 0.21875 0.46875
vt 0.15625 0.46875
vt 0.15625 0.34375
vt 0.75 0.27902812499999996
vt 0.75 0.40847187500000004
vt 0.59375 0.34375
vt 0.24777812500000002 0.8125
vt 0.15625 0.720971875
vt 0.3125 0.65625
vt 0.40625 0.34375
vt 0.40625 0.46875
vt 0.34375 0.46875
vt 0.34375 0.34375
vt 0.75 0.40847187500000004
vt 0.658471875 0.5
vt 0.59375 0.34375
vt 0.377221875 0.8125
vt 0.24777812500000002 0.8125
vt 0.3125 0.65625
vt 0.625 0.8125
vt 0.5 0.8125
vt 0.5 0.75
vt 0.625 0.75
vt 0.658471875 0.5
vt 0.529028125 0.5
vt 0.59375 0.34375
vt 0.46875 0.720971875
vt 0.377221875 0.8125
vt 0.3125 0.65625
vt 0.25 0.3125
vt 0.25 0.1875
vt 0.3125 0.1875
vt 0.3125 0.3125
vt 0.529028125 0.5
vt 0.4375 0.40847187500000004
vt 0.59375 0.34375
vt 0.46875 0.591528125
vt 0.46875 0.720971875
vt 0.3125 0.65625
vt 0.25 0.46875
vt 0.25 0.34375
vt 0.3125 0.34375
vt 0.3125 0.46875
vt 0.4375 0.40847187500000004
vt 0.4375 0.27902812499999996
vt 0.59375 0.34375
vt 0.377221875 0.5
vt 0.46875 0.591528125
vt 0.3125 0.65625
vt 0.15625 0.3125
vt 0.15625 0.1875
vt 0.21875 0.1875
vt 0.21875 0.3125
vt 0.4375 0.27902812499999996
vt 0.529028125 0.1875
vt 0.59375 0.34375
vt 0.24777812500000002 0.5
vt 0.377221875 0.5
vt 0.3125 0.65625
vt 0.5 0.71875
vt 0.5 0.59375
vt 0.5625 0.59375
vt 0.5625 0.71875
vt 0.529028125 0.1875
vt 0.658471875 0.1875
vt 0.59375 0.34375
vn 1.839477736234473e-17 -1.7001631767970828e-16 -1
vn 0.7071067811865476 -0.7071067811865475 0
vn 8.881784197001259e-17 2.1442523866471458e-16 1
vn 4.440892098500625e-17 -1.0721261933235725e-16 -1
vn 1 0 0
vn 4.440892098500627e-17 1.0721261933235725e-16 1
vn 8.881784197001252e-17 -2.1442523866471453e-16 -1
vn 0.7071067811865477 0.7071067811865475 0
vn 1.8394777362344744e-17 1.700163176797083e-16 1
vn 0 -1.7763568394002506e-16 -1
vn 0 1 0
vn 0 1.7763568394002506e-16 1
vn -8.88178419700127e-17 -2.1442523866471458e-16 -1
vn -0.7071067811865474 0.7071067811865477 0
vn -1.839477736234463e-17 1.700163176797083e-16 1
vn -4.4408920985006276e-17 -1.0721261933235714e-16 -1
vn -1 4.2885047732942867e-16 0
vn -4.440892098500626e-17 1.0721261933235718e-16 1
vn -6.280369834735099e-17 -6.280369834735099e-17 -1
vn -0.7071067811865476 -0.7071067811865476 0
vn -8.881784197001268e-17 2.1442523866471473e-16 1
vn 1.072126193323571e-16 -1.3322676295501885e-16 -1
vn -4.2885047732942867e-16 -1 4.4187981079608266e-16
vn 3.8089573924209636e-32 1.7763568394002508e-16 1
usemtl m_aaa902c3-e305-ae2a-d655-f3b09f39006d
f 23/81/25 21/82/25 19/83/25
f 21/84/26 23/85/26 24/86/26 22/87/26
f 22/88/27 24/89/27 20/90/27
f 25/91/28 23/92/28 19/93/28
f 23/94/29 25/95/29 26/96/29 24/97/29
f 24/98/30 26/99/30 20/100/30
f 27/101/31 25/102/31 19/103/31
f 25/104/32 27/105/32 28/106/32 26/107/32
f 26/108/33 28/109/33 20/110/33
f 29/111/34 27/112/34 19/113/34
f 27/114/35 29/115/35 30/116/35 28/117/35
f 28/118/36 30/119/36 20/120/36
f 31/121/37 29/122/37 19/123/37
f 29/124/38 31/125/38 32/126/38 30/127/38
f 30/128/39 32/129/39 20/130/39
f 33/131/40 31/132/40 19/133/40
f 31/134/41 33/135/41 34/136/41 32/137/41
f 32/138/42 34/139/42 20/140/42
f 35/141/43 33/142/43 19/143/43
f 33/144/44 35/145/44 36/146/44 34/147/44
f 34/148/45 36/149/45 20/150/45
f 21/151/46 35/152/46 19/153/46
f 35/154/47 21/155/47 22/156/47 36/157/47
f 36/158/48 22/159/48 20/160/48
o cylinder
v 0 0 -0.06312499999999996
v 0 2.7755575615628914e-17 0.06312499999999999
v 0.07766504294495533 -0.1875 -0.06312499999999995
v 0.07766504294495533 -0.1875 0.06312499999999999
v 0.1875 -0.07766504294495534 -0.06312499999999995
v 0.1875 -0.07766504294495531 0.06312499999999999
v 0.1875 0.07766504294495533 -0.06312499999999997
v 0.1875 0.07766504294495535 0.06312499999999993
v 0.07766504294495535 0.1875 -0.063125
v 0.07766504294495535 0.18750000000000006 0.06312499999999993
v -0.07766504294495531 0.1875 -0.06312499999999997
v -0.07766504294495531 0.18750000000000006 0.06312499999999993
v -0.18749999999999994 0.07766504294495545 -0.06312499999999997
v -0.18749999999999994 0.07766504294495546 0.06312499999999993
v -0.1875 -0.07766504294495537 -0.06312499999999995
v -0.1875 -0.07766504294495535 0.06312499999999999
v -0.07766504294495545 -0.18749999999999994 -0.06312499999999992
v -0.07766504294495545 -0.18749999999999994 0.06312499999999999
vt 0.40625 0.43773125
vt 0.46116875 0.3828125
vt 0.5 0.4765625
vt 0.6640625 0.3125
vt 0.6640625 0.375
vt 0.6015625 0.375
vt 0.6015625 0.3125
vt 0.53101875 0.4375
vt 0.5859375 0.49241875
vt 0.4921875 0.53125
vt 0.40625 0.51539375
vt 0.40625 0.43773125
vt 0.5 0.4765625
vt 0.6015625 0.65625
vt 0.6015625 0.71875
vt 0.5390625 0.71875
vt 0.5390625 0.65625
vt 0.5859375 0.49241875
vt 0.5859375 0.57008125
vt 0.4921875 0.53125
vt 0.46116875 0.5703125
vt 0.40625 0.51539375
vt 0.5 0.4765625
vt 0.6953125 0.65625
vt 0.6953125 0.71875
vt 0.6328125 0.71875
vt 0.6328125 0.65625
vt 0.5859375 0.57008125
vt 0.53101875 0.625
vt 0.4921875 0.53125
vt 0.53883125 0.5703125
vt 0.46116875 0.5703125
vt 0.5 0.4765625
vt 0.5390625 0.15625
vt 0.6015625 0.15625
vt 0.6015625 0.21875
vt 0.5390625 0.21875
vt 0.49976875 0.5390625
vt 0.42210625 0.5390625
vt 0.4609375 0.4453125
vt 0.59375 0.51539375
vt 0.53883125 0.5703125
vt 0.5 0.4765625
vt 0.6015625 0.46875
vt 0.6015625 0.40625
vt 0.6640625 0.40625
vt 0.6640625 0.46875
vt 0.42210625 0.5390625
vt 0.3671875 0.48414375
vt 0.4609375 0.4453125
vt 0.59375 0.43773125
vt 0.59375 0.51539375
vt 0.5 0.4765625
vt 0.5390625 0.625
vt 0.5390625 0.5625
vt 0.6015625 0.5625
vt 0.6015625 0.625
vt 0.3671875 0.48414375
vt 0.3671875 0.40648125
vt 0.4609375 0.4453125
vt 0.53883125 0.3828125
vt 0.59375 0.43773125
vt 0.5 0.4765625
vt 0.6015625 0.53125
vt 0.6015625 0.46875
vt 0.6640625 0.46875
vt 0.6640625 0.53125
vt 0.3671875 0.40648125
vt 0.42210625 0.3515625
vt 0.4609375 0.4453125
vt 0.46116875 0.3828125
vt 0.53883125 0.3828125
vt 0.5 0.4765625
vt 0.6015625 0.5625
vt 0.6015625 0.5
vt 0.6640625 0.5
vt 0.6640625 0.5625
vt 0.42210625 0.3515625
vt 0.49976875 0.3515625
vt 0.4609375 0.4453125
vn 5.233641528945916e-17 -5.233641528945917e-17 -1
vn 0.7071067811865476 -0.7071067811865476 1.7691851374976462e-16
vn 0 0 1
vn 0 -1.786876988872621e-16 -1
vn 1 0 0
vn 1.4802973661668756e-16 3.573753977745242e-16 1
vn 2.1678453018884594e-17 -2.310241141767213e-16 -1
vn 0.7071067811865477 0.7071067811865475 -2.653777706246469e-16
vn 2.093456611578367e-16 2.093456611578366e-16 1
vn -1.786876988872621e-16 -1.4802973661668753e-16 -1
vn -7.85676029789804e-32 1 -4.3969228698026036e-16
vn 0 2.9605947323337506e-16 1
vn 5.2336415289459143e-17 -5.233641528945918e-17 -1
vn -0.7071067811865472 0.7071067811865478 -8.845925687488235e-17
vn -2.0934566115783662e-16 2.093456611578367e-16 1
vn -3.967663950438503e-32 -1.786876988872619e-16 -1
vn -1 3.573753977745238e-16 0
vn -1.480297366166875e-16 3.5737539777452383e-16 1
vn 2.1678453018884717e-17 -2.310241141767214e-16 -1
vn -0.7071067811865477 -0.7071067811865475 0
vn 0 0 1
vn -1.7868769888726202e-16 -1.480297366166875e-16 -1
vn -3.5737539777452393e-16 -1 0
vn 0 0 1
usemtl m_27634035-53c9-78d8-8ffc-a902c2b900b6
f 41/161/49 39/162/49 37/163/49
f 39/164/50 41/165/50 42/166/50 40/167/50
f 40/168/51 42/169/51 38/170/51
f 43/171/52 41/172/52 37/173/52
f 41/174/53 43/175/53 44/176/53 42/177/53
f 42/178/54 44/179/54 38/180/54
f 45/181/55 43/182/55 37/183/55
f 43/184/56 45/185/56 46/186/56 44/187/56
f 44/188/57 46/189/57 38/190/57
f 47/191/58 45/192/58 37/193/58
f 45/194/59 47/195/59 48/196/59 46/197/59
f 46/198/60 48/199/60 38/200/60
f 49/201/61 47/202/61 37/203/61
f 47/204/62 49/205/62 50/206/62 48/207/62
f 48/208/63 50/209/63 38/210/63
f 51/211/64 49/212/64 37/213/64
f 49/214/65 51/215/65 52/216/65 50/217/65
f 50/218/66 52/219/66 38/220/66
f 53/221/67 51/222/67 37/223/67
f 51/224/68 53/225/68 54/226/68 52/227/68
f 52/228/69 54/229/69 38/230/69
f 39/231/70 53/232/70 37/233/70
f 53/234/71 39/235/71 40/236/71 54/237/71
f 54/238/72 40/239/72 38/240/72
o cylinder
v 0 0 -0.0634375
v 0 2.7755575615628914e-17 0.06343749999999998
v 0.025888347648318443 -0.0625 -0.06343749999999998
v 0.025888347648318443 -0.06249999999999998 0.06343749999999998
v 0.0625 -0.025888347648318447 -0.0634375
v 0.0625 -0.025888347648318433 0.06343749999999998
v 0.0625 0.02588834764831844 -0.0634375
v 0.0625 0.025888347648318447 0.06343749999999998
v 0.025888347648318447 0.0625 -0.0634375
v 0.025888347648318447 0.06250000000000003 0.06343749999999998
v -0.025888347648318436 0.06250000000000001 -0.0634375
v -0.025888347648318436 0.06250000000000003 0.06343749999999998
v -0.062499999999999986 0.02588834764831848 -0.0634375
v -0.062499999999999986 0.02588834764831851 0.06343749999999998
v -0.062499999999999986 -0.025888347648318457 -0.06343749999999998
v -0.062499999999999986 -0.02588834764831844 0.06343749999999998
v -0.02588834764831848 -0.062499999999999986 -0.06343749999999998
v -0.02588834764831848 -0.06249999999999997 0.06343749999999998
vt 0.34375 0.26830624999999997
vt 0.36205624999999997 0.25
vt 0.375 0.28125
vt 0.8125 0.65625
vt 0.8125 0.6875
vt 0.75 0.6875
vt 0.75 0.65625
vt 0.70044375 0.75
vt 0.71875 0.76830625
vt 0.6875 0.78125
vt 0.34375 0.29419375000000003
vt 0.34375 0.26830624999999997
vt 0.375 0.28125
vt 0.5625 0.53125
vt 0.5625 0.5625
vt 0.5 0.5625
vt 0.5 0.53125
vt 0.71875 0.76830625
vt 0.71875 0.79419375
vt 0.6875 0.78125
vt 0.36205624999999997 0.3125
vt 0.34375 0.29419375000000003
vt 0.375 0.28125
vt 0.8125 0.78125
vt 0.8125 0.8125
vt 0.75 0.8125
vt 0.75 0.78125
vt 0.71875 0.79419375
vt 0.70044375 0.8125
vt 0.6875 0.78125
vt 0.38794375000000003 0.3125
vt 0.36205624999999997 0.3125
vt 0.375 0.28125
vt 0.6875 0.65625
vt 0.71875 0.65625
vt 0.71875 0.71875
vt 0.6875 0.71875
vt 0.70044375 0.8125
vt 0.67455625 0.8125
vt 0.6875 0.78125
vt 0.40625 0.29419375000000003
vt 0.38794375000000003 0.3125
vt 0.375 0.28125
vt 0.75 0.75
vt 0.75 0.71875
vt 0.8125 0.71875
vt 0.8125 0.75
vt 0.67455625 0.8125
vt 0.65625 0.79419375
vt 0.6875 0.78125
vt 0.40625 0.26830624999999997
vt 0.40625 0.29419375000000003
vt 0.375 0.28125
vt 0.59375 0.5625
vt 0.59375 0.53125
vt 0.65625 0.53125
vt 0.65625 0.5625
vt 0.65625 0.79419375
vt 0.65625 0.76830625
vt 0.6875 0.78125
vt 0.38794375000000003 0.25
vt 0.40625 0.26830624999999997
vt 0.375 0.28125
vt 0.6875 0.5625
vt 0.6875 0.53125
vt 0.75 0.53125
vt 0.75 0.5625
vt 0.65625 0.76830625
vt 0.67455625 0.75
vt 0.6875 0.78125
vt 0.36205624999999997 0.25
vt 0.38794375000000003 0.25
vt 0.375 0.28125
vt 0.6875 0.625
vt 0.6875 0.59375
vt 0.75 0.59375
vt 0.75 0.625
vt 0.67455625 0.75
vt 0.70044375 0.75
vt 0.6875 0.78125
vn -1.1102230246251568e-16 -2.6803154833089315e-16 -1
vn 0.7071067811865476 -0.7071067811865476 6.601762274159933e-17
vn 0 0 1
vn 0 0 -1
vn 1 0 0
vn 0 0 1
vn 0 0 -1
vn 0.7071067811865476 0.7071067811865475 -1.650440568539983e-16
vn 0 0 1
vn 0 0 -1
vn 2.680315483308932e-16 1 -1.0938157878080364e-16
vn 0 0 1
vn 0 0 -1
vn -0.7071067811865474 0.7071067811865478 -1.320352454831987e-16
vn 0 0 1
vn -1.1102230246251573e-16 -2.680315483308929e-16 -1
vn -1 0 0
vn 0 0 1
vn -1.5700924586837752e-16 -1.5700924586837742e-16 -1
vn -0.7071067811865478 -0.7071067811865474 6.601762274159941e-17
vn 0 0 1
vn -5.951495925657757e-32 -2.2204460492503136e-16 -1
vn -2.6803154833089295e-16 -1 1.6407236817120545e-16
vn 0 0 1
usemtl m_aaa902c3-e305-ae2a-d655-f3b09f39006d
f 59/241/73 57/242/73 55/243/73
f 57/244/74 59/245/74 60/246/74 58/247/74
f 58/248/75 60/249/75 56/250/75
f 61/251/76 59/252/76 55/253/76
f 59/254/77 61/255/77 62/256/77 60/257/77
f 60/258/78 62/259/78 56/260/78
f 63/261/79 61/262/79 55/263/79
f 61/264/80 63/265/80 64/266/80 62/267/80
f 62/268/81 64/269/81 56/270/81
f 65/271/82 63/272/82 55/273/82
f 63/274/83 65/275/83 66/276/83 64/277/83
f 64/278/84 66/279/84 56/280/84
f 67/281/85 65/282/85 55/283/85
f 65/284/86 67/285/86 68/286/86 66/287/86
f 66/288/87 68/289/87 56/290/87
f 69/291/88 67/292/88 55/293/88
f 67/294/89 69/295/89 70/296/89 68/297/89
f 68/298/90 70/299/90 56/300/90
f 71/301/91 69/302/91 55/303/91
f 69/304/92 71/305/92 72/306/92 70/307/92
f 70/308/93 72/309/93 56/310/93
f 57/311/94 71/312/94 55/313/94
f 71/314/95 57/315/95 58/316/95 72/317/95
f 72/318/96 58/319/96 56/320/96