# Made in Blockbench 4.12.2
mtllib materials.mtl

o cube
v 0.4375 -0.5 -0.4375
v -0.4375 -0.5 -0.4375
v -0.4375 0.5 -0.4375
v 0.4375 0.5 -0.4375
v 0.4375 -0.5 0.4375
v 0.4375 0.5 0.4375
v -0.4375 -0.5 0.4375
v -0.4375 0.5 0.4375
vt 0.765625 0.015625
vt 0.984375 0.015625
vt 0.984375 0.265625
vt 0.765625 0.265625
vt 0.765625 0.015625
vt 0.984375 0.015625
vt 0.984375 0.265625
vt 0.765625 0.265625
vt 0.765625 0.015625
vt 0.984375 0.015625
vt 0.984375 0.265625
vt 0.765625 0.265625
vt 0.765625 0.015625
vt 0.984375 0.015625
vt 0.984375 0.265625
vt 0.765625 0.265625
vt 0.234375 0.234375
vt 0.015625 0.234375
vt 0.015625 0.015625
vt 0.234375 0.015625
vt 0.234375 0.015625
vt 0.015625 0.015625
vt 0.015625 0.234375
vt 0.234375 0.234375
vn 0 0 -1
vn 1 0 0
vn 0 0 1
vn -1 0 0
vn 0 1 0
vn 0 -1 0
usemtl m_70fe64ca-4896-d563-d538-d9b6ff07cb8c
f 1/1/1 2/2/1 3/3/1 4/4/1
f 5/5/2 1/6/2 4/7/2 6/8/2
f 7/9/3 5/10/3 6/11/3 8/12/3
f 2/13/4 7/14/4 8/15/4 3/16/4
f 8/17/5 6/18/5 4/19/5 3/20/5
f 2/21/6 1/22/6 5/23/6 7/24/6